<?xml version="1.0" encoding="utf-8"?>
<!-- Generator: Adobe Illustrator 19.1.0, SVG Export Plug-In . SVG Version: 6.00 Build 0)  -->
<svg version="1.1" id="Layer_1" xmlns="http://www.w3.org/2000/svg" xmlns:xlink="http://www.w3.org/1999/xlink" x="0px" y="0px"
	 viewBox="0 0 450 300" style="enable-background:new 0 0 450 300;" xml:space="preserve">
<style type="text/css">
	.st0{fill:#10529F;}
	.st1{fill:#D52031;}
	.st2{filter:url(#Adobe_OpacityMaskFilter);}
	.st3{mask:url(#SVGID_1_);fill:url(#SVGID_2_);}
	.st4{filter:url(#Adobe_OpacityMaskFilter_1_);}
	.st5{mask:url(#SVGID_3_);fill:url(#SVGID_4_);}
	.st6{clip-path:url(#SVGID_6_);}
	.st7{fill:url(#SVGID_7_);}
	.st8{fill:url(#SVGID_8_);}
	.st9{fill:#FFFFFF;}
</style>
<g>
	<g>
		<path class="st0" d="M63.7,237.6l-11.4,14.8h-1.2l-11.3-14.8v24.7h-7v-36.6h6.3L51.8,242l12.7-16.3h6.3v36.6h-7V237.6z"/>
		<path class="st0" d="M91.2,226h8.8l14,36.6h-7.6l-2.8-7.3H87.1l-2.8,7.3h-7.6L91.2,226z M89,249.7h12.7l-6.2-16.2L89,249.7z"/>
		<path class="st0" d="M119.6,262.3v-36.6h7.5v30h18.8v6.6H119.6z"/>
		<path class="st0" d="M163.9,225.7h8.8l14,36.6h-7.6l-2.8-7.3h-16.5l-2.8,7.3h-7.6L163.9,225.7z M161.7,249.4h12.7l-6.2-16.2
			L161.7,249.4z"/>
		<path class="st0" d="M197.1,247.8l-14.2-21.6v-0.5h8.3l9.6,15.2l9.6-15.2h8.3v0.5l-14.2,21.5v14.5h-7.5V247.8z"/>
		<path class="st0" d="M222.6,252.4c2.6,1.7,6.8,3.6,11.5,3.6c4.4,0,7.1-1.4,7.1-4.1c0-2-1.3-3.1-5.1-4.1l-6-1.5
			c-6.5-1.6-9.3-5.1-9.3-10.1c0-6.1,4.5-11,14.2-11c5.2,0,10.2,1.5,13,2.9L246,235c-2.7-1.6-7.2-2.9-11.2-2.9
			c-4.4,0-6.2,1.3-6.2,3.4c0,2,1.3,2.7,3.9,3.5l6.7,1.9c6.6,1.8,9.8,5.1,9.8,10.3c0,6.9-6.3,11.6-15.1,11.6
			c-5.3,0-10.8-1.8-13.1-3.2L222.6,252.4z"/>
		<path class="st0" d="M256.1,225.7h7.5v36.6h-7.5V225.7z"/>
		<path class="st0" d="M285.5,225.7h8.8l14,36.6h-7.6l-2.8-7.3h-16.5l-2.8,7.3H271L285.5,225.7z M283.4,249.4h12.7l-6.2-16.2
			L283.4,249.4z"/>
	</g>
	<g>
		<g>
			<path class="st1" d="M149.4,72.4c-9.3,13.5-14.6,30-14.6,48.4c0,9.1,1.3,17.7,3.8,25.8c16-9.4,26.9-27.2,26.9-51.5
				c0-41-34.1-55-64.2-55H32.8v160.2h42.2v-46.1h34.7c7.8,0,15.3-1.5,22.2-4.3c-1.7-6.9-2.6-14.1-2.6-21.6
				C129.3,106.5,136.7,87.2,149.4,72.4z M103,120.1H75.1v-41H103c10.8,0,18.9,8.2,18.9,20.7C121.9,111.9,113.8,120.1,103,120.1z"/>
		</g>
		<path class="st1" d="M219.6,37.9c48.9,0,85.3,35.4,85.3,82.8c0,46.9-36.5,82.3-85.3,82.3c-48.4,0-84.8-35.4-84.8-82.3
			C134.7,73.3,171.2,37.9,219.6,37.9z"/>
		<g>
			<path class="st1" d="M371.7,105.9l-27.3-7.1l-0.1,0.2c-10.7-3.1-17.7-6.7-17.7-12.9c0-12.2,14.5-15.7,30.1-12.5
				c17.8,3.6,19.8,8.7,33.2,16.1l21.4-31.8c-12.6-6-33.8-20.7-58.9-20.7c-44.5,0-71.2,21.7-71.2,50.8c0,16.1,6.6,29.1,23.5,38.4
				c0.1-1.9,0.2-3.8,0.2-5.7c0-12.2-2.3-23.5-6.6-33.7c6.5,12.1,10.1,26,10.1,41.2c0,0,0,0.1,0,0.1c5.2,2.5,11.3,4.7,18.3,6.5
				l0.1-0.1l18.9,4.7c15.2,3.8,26.1,7.5,26.1,15.1c0,12.2-14.5,15.7-30.1,12.5c-17.6-3.5-23.6-7.5-36.7-14.8
				c-3.5,12.4-9.7,23.4-18.1,32.7c12.7,6.2,34.7,18.5,59.1,18.5c44.5,0,71.2-21.7,71.2-50.8C417.2,130.9,405.2,114.7,371.7,105.9z"
				/>
		</g>
		<defs>
			<filter id="Adobe_OpacityMaskFilter" filterUnits="userSpaceOnUse" x="137.1" y="42.8" width="163.4" height="156.8">
				<feColorMatrix  type="matrix" values="1 0 0 0 0  0 1 0 0 0  0 0 1 0 0  0 0 0 1 0"/>
			</filter>
		</defs>
		<mask maskUnits="userSpaceOnUse" x="137.1" y="42.8" width="163.4" height="156.8" id="SVGID_1_">
			<g class="st2">
				<ellipse class="st1" cx="230.5" cy="120.8" rx="69.7" ry="73.3"/>
			</g>
		</mask>
		<linearGradient id="SVGID_2_" gradientUnits="userSpaceOnUse" x1="293.729" y1="121.1931" x2="230.2479" y2="121.1931">
			<stop  offset="5.617980e-003" style="stop-color:#FFFFFF"/>
			<stop  offset="2.436039e-002" style="stop-color:#FDF5F5"/>
			<stop  offset="0.1226" style="stop-color:#F4C3C8"/>
			<stop  offset="0.2259" style="stop-color:#EC989F"/>
			<stop  offset="0.3325" style="stop-color:#E5737D"/>
			<stop  offset="0.4433" style="stop-color:#DF5562"/>
			<stop  offset="0.5597" style="stop-color:#DB3D4C"/>
			<stop  offset="0.6839" style="stop-color:#D72D3D"/>
			<stop  offset="0.8217" style="stop-color:#D62334"/>
			<stop  offset="1" style="stop-color:#D52031"/>
		</linearGradient>
		<path class="st3" d="M218.6,42.8c46.9,0,81.9,33.6,81.9,78.6c0,44.6-35,78.2-81.9,78.2c-46.5,0-81.5-33.6-81.5-78.2
			C137.1,76.4,172.1,42.8,218.6,42.8z"/>
		<defs>
			<filter id="Adobe_OpacityMaskFilter_1_" filterUnits="userSpaceOnUse" x="137.1" y="42.8" width="163.4" height="156.8">
				<feColorMatrix  type="matrix" values="1 0 0 0 0  0 1 0 0 0  0 0 1 0 0  0 0 0 1 0"/>
			</filter>
		</defs>
		<mask maskUnits="userSpaceOnUse" x="137.1" y="42.8" width="163.4" height="156.8" id="SVGID_3_">
			<g class="st4">
				<ellipse class="st1" cx="230.5" cy="120.8" rx="69.7" ry="73.3"/>
			</g>
		</mask>
		<linearGradient id="SVGID_4_" gradientUnits="userSpaceOnUse" x1="291.8342" y1="78.5588" x2="256.2373" y2="99.3236">
			<stop  offset="5.617980e-003" style="stop-color:#FFFFFF"/>
			<stop  offset="6.879969e-002" style="stop-color:#FEFAFA"/>
			<stop  offset="0.1407" style="stop-color:#FCEDED"/>
			<stop  offset="0.2168" style="stop-color:#F8D7D6"/>
			<stop  offset="0.2959" style="stop-color:#F3B7B6"/>
			<stop  offset="0.3773" style="stop-color:#EC8F8D"/>
			<stop  offset="0.4596" style="stop-color:#E45E5B"/>
			<stop  offset="0.4663" style="stop-color:#E35A57"/>
			<stop  offset="1" style="stop-color:#D42030"/>
		</linearGradient>
		<path class="st5" d="M218.6,42.8c46.9,0,81.9,33.6,81.9,78.6c0,44.6-35,78.2-81.9,78.2c-46.5,0-81.5-33.6-81.5-78.2
			C137.1,76.4,172.1,42.8,218.6,42.8z"/>
		<g>
			<defs>
				<path id="SVGID_5_" d="M219.6,46.3c43.9,0,76.7,31.8,76.7,74.5c0,42.2-32.8,74-76.7,74c-43.5,0-76.3-31.8-76.3-74
					C143.3,78.1,176.1,46.3,219.6,46.3z"/>
			</defs>
			<clipPath id="SVGID_6_">
				<use xlink:href="#SVGID_5_"  style="overflow:visible;"/>
			</clipPath>
			<g class="st6">
				<linearGradient id="SVGID_7_" gradientUnits="userSpaceOnUse" x1="184.6942" y1="36.1635" x2="218.7091" y2="84.8129">
					<stop  offset="0" style="stop-color:#D52031"/>
					<stop  offset="0.2247" style="stop-color:#D52031"/>
					<stop  offset="0.9944" style="stop-color:#FFFFFF"/>
				</linearGradient>
				<path class="st7" d="M270.7,109.5l-58.8-65.4c-11.1,1-34.2,4.4-45.7,15.9l44.5,49.5c3,3,4.5,6.8,4.7,10.7h59.9
					C275.2,116.3,273.7,112.4,270.7,109.5z"/>
				<linearGradient id="SVGID_8_" gradientUnits="userSpaceOnUse" x1="193.9655" y1="200.0186" x2="226.0027" y2="146.6233">
					<stop  offset="0" style="stop-color:#D52031"/>
					<stop  offset="6.741570e-002" style="stop-color:#D52031"/>
					<stop  offset="9.741256e-002" style="stop-color:#D72B3B"/>
					<stop  offset="0.2836" style="stop-color:#E36B76"/>
					<stop  offset="0.4615" style="stop-color:#EDA0A7"/>
					<stop  offset="0.6263" style="stop-color:#F5C9CD"/>
					<stop  offset="0.775" style="stop-color:#FAE7E8"/>
					<stop  offset="0.9027" style="stop-color:#FEF9F9"/>
					<stop  offset="0.9944" style="stop-color:#FFFFFF"/>
				</linearGradient>
				<path class="st8" d="M215.5,120.1c0.2,4.3-1.4,8.7-4.7,12.1l-40.3,45.9c6.3,4.8,23.1,16.2,42.5,19.9l57.8-65.8
					c3.3-3.3,4.9-7.7,4.7-12.1H215.5z"/>
			</g>
		</g>
		<rect x="215.5" y="120" class="st9" width="59.9" height="0.3"/>
	</g>
</g>
</svg>
